<svg width="24" height="24" viewBox="0 0 24 24" fill="none" xmlns="http://www.w3.org/2000/svg">
<path d="M16.035 3.01499C16.5735 2.47639 17.2966 2.16274 18.0578 2.13767C18.819 2.1126 19.5613 2.37798 20.134 2.87999L20.278 3.01499L20.985 3.72199C21.5233 4.26041 21.8368 4.98337 21.8618 5.74433C21.8869 6.50528 21.6217 7.2473 21.12 7.81999L20.985 7.96399L9.773 19.177C9.61447 19.3355 9.42243 19.4565 9.211 19.531L9.049 19.578L4.595 20.606C4.43894 20.6423 4.27644 20.6405 4.12119 20.6009C3.96594 20.5613 3.82248 20.485 3.7029 20.3783C3.58332 20.2717 3.49112 20.1378 3.43405 19.9881C3.37699 19.8384 3.35673 19.6772 3.375 19.518L3.395 19.405L4.422 14.95C4.47273 14.7315 4.57183 14.5271 4.712 14.352L4.823 14.227L16.035 3.01499ZM15.328 6.54999L6.338 15.54L5.702 18.298L8.46 17.661L17.45 8.67099L15.328 6.54999ZM18.864 4.42899C18.6918 4.25681 18.4627 4.15338 18.2197 4.1381C17.9767 4.12282 17.7364 4.19674 17.544 4.34599L17.45 4.42899L16.742 5.13599L18.864 7.25699L19.571 6.54999C19.7432 6.3778 19.8466 6.1487 19.8619 5.90567C19.8772 5.66264 19.8033 5.42239 19.654 5.22999L19.571 5.13599L18.864 4.42899Z" fill="#7E7E7E"/>
</svg>
